<?xml version="1.0" encoding="utf-8"?>
<!-- Generator: Adobe Illustrator 23.0.3, SVG Export Plug-In . SVG Version: 6.00 Build 0)  -->
<svg version="1.1" id="Layer_1" xmlns="http://www.w3.org/2000/svg" xmlns:xlink="http://www.w3.org/1999/xlink" x="0px" y="0px"
	 viewBox="0 0 2000 2000" style="enable-background:new 0 0 2000 2000;" xml:space="preserve">
<style type="text/css">
	.st0{fill:#F2F2F2;}
	.st1{fill:#BFBFE7;}
	.st2{fill:#D4D4FF;}
	.st3{fill:#7F80CF;}
	.st4{fill:#3F40B7;}
	.st5{opacity:0.1;}
	.st6{fill:#FADD8A;}
	.st7{fill:#FFC107;}
	.st8{fill:#FFFFFF;}
	.st9{fill:#B2B2D6;}
	.st10{fill:#2A2B7A;}
	.st11{opacity:0.65;}
	.st12{clip-path:url(#SVGID_2_);}
	.st13{fill:#32378E;}
	.st14{fill:#D39807;}
	.st15{fill:url(#SVGID_3_);}
	.st16{fill:#F8CC4F;}
	.st17{clip-path:url(#SVGID_5_);}
	.st18{fill:url(#SVGID_6_);}
	.st19{opacity:0.07;}
	.st20{opacity:0.04;}
	.st21{fill:#CECEF4;}
	.st22{fill:#15153D;}
	.st23{fill:#291D88;}
	.st24{fill:#ECD3BE;}
	.st25{fill:#0054B0;}
	.st26{fill:#FEFEFE;}
	.st27{fill:#FAF1F3;}
	.st28{fill:#4C52D6;}
	.st29{fill:#FFDF97;}
	.st30{fill:#242424;}
	.st31{fill:#DDA519;}
	.st32{fill:#3A3FA3;}
	.st33{fill:#F8F7F2;}
</style>
<g>
	<path class="st0" d="M793.78,635.59c-324.48,202.63-604.2,811.96-147.67,654.39s529.35-77.17,748.07,34.37
		s564.15-149.17,288.08-384.77s-135.95-309.05-215.22-431.6C1387.79,385.42,1011.45,499.66,793.78,635.59z"/>
	<g>
		<g>
			<path class="st23" d="M1416.06,993.32c28,30.74,18.12,77.6,18.12,77.6c-37.66-46.57-95.05-28.69-110.53-61.74
				C1315.4,991.58,1377.82,951.34,1416.06,993.32z"/>
			<path class="st2" d="M1402.84,1115.72c14.37,10.89,21.23,26.66,24.53,39.44c-0.2-5.53-0.49-11.11-0.96-16.77
				c-4.88-58.88,18.69-101.62,55.59-143.92c-39.59-41.27-95.44-25.74-111.02-59.01c-8.7-18.57,57.13-61,97.46-16.73
				c19.7,21.62,21.6,50.73,20.7,67.78c13.11-14.4,27.66-28.91,43.05-44.06c-25.58-42.12-76.44-38.48-83.1-69.63
				c-3.71-17.38,61.07-42.29,86.68,2.52c11.72,20.5,8.77,43.99,4.91,58.73c11.06-10.86,22.51-22.27,34.16-34.22
				c5.21-45.87-31.96-75.62-13.8-103.48c10.88-16.69,83.49,7.71,68.47,61.8c-7.21,25.96-30.1,43.41-45.07,52.4
				c-11.38,11.64-22.59,22.79-33.39,33.41c11-5.6,24.25-9.93,38.8-9.68c54.64,0.95,59.98,65.86,41.61,70.64
				c-32.9,8.55-52.38-35.1-104.28-37.33c-16.62,16.63-31.62,32.38-44.27,48.18c15.33-8.92,44.73-22.32,75.56-16.42
				c61.17,11.69,52.53,85.65,30.81,87.45c-39.73,3.28-51.46-51.91-112.6-62.95c-17.43,23.34-29.49,47.25-33.99,74.8
				c10.27-10.95,35.3-33.59,68.04-35.3c59.12-3.1,70.59,66.63,51.15,73.18c-35.61,12-60.84-36.1-119.95-32.25
				c-1.29,10.45-1.65,21.37-0.68,33.06c1.68,20.28,1.56,39.67,0.37,57.83c9.83-10.21,27.18-24.32,49.66-26.7
				c49.01-5.21,62.15,52.28,46.32,58.59c-28.06,11.19-50.91-24.94-96.74-21.99c-2.75,30.7-8.5,57.13-14.05,77.04
				c7.55-5.81,17.35-11.24,29.12-12.5c37.83-4.02,47.97,40.35,35.75,45.22c-20.58,8.21-37.56-16.52-69.55-17.05
				c-4.51,13.93-8.1,22.28-8.56,23.32c-1.44,3.32-5.35,5.01-8.96,4.02c-0.25-0.07-0.48-0.15-0.73-0.24
				c-3.8-1.43-5.63-5.47-4.08-8.99c0.16-0.36,7.4-17.29,14.46-44.69c-29.02-22-61.35-6.22-74.89-24.81
				c-7.44-10.23,26.91-42.48,56.4-20.13c13.95,10.57,18.72,27.01,20.38,37.41c5.72-24,10.85-54.79,11.42-89.14
				c-37.8-29.4-80.15-8.48-97.81-32.74C1320.12,1128.55,1364.62,1086.76,1402.84,1115.72z"/>
		</g>
		<path class="st1" d="M1787.28,1101.59c37.33-30.43,0-78.4-15.77-71.71c-26.34,11.18-15.87,47.51-42.39,76.56
			c-13.93,3.13-27.46,5.97-40.44,8.61c10.01-8.39,23.79-23.14,26.06-42.19c4.96-41.62-51.71-52.58-57.88-39.12
			c-11.05,24.12,25.47,43.58,21.84,83.36c-18.09,3.7-35.27,7.32-51.43,11.49c9.15-11.24,22.42-31.93,19.81-55.17
			c-5.35-47.6-71.51-47.05-74.87-30.63c-6.03,29.43,39.85,42.92,46.2,88.16c-21.18,5.91-40.4,13.23-57.64,23.31
			c7.58-11.19,15.21-27.13,13.23-44.73c-5.07-45.13-67.8-44.61-70.99-29.04c-5.69,27.77,37.02,40.86,43.37,83.27
			c-14.42,10.71-27.19,24.01-37.95,41.4c-2.51,4.06-5.11,8-7.74,11.86c4.15-10.15,7.36-23.86,3.01-37.49
			c-11.57-36.24-62.86-26.94-62.91-13.74c-0.1,24.17,39.27,28.17,50.34,64.54c-17.58,23.19-36.5,41.98-52.42,55.89
			c4.07-7.81,9.05-21.09,4.83-34.32c-8.93-27.98-48.52-20.79-48.56-10.6c-0.07,18.53,29.89,21.7,38.67,49.24
			c-18.53,15.65-31.95,24.07-32.24,24.25c-2.82,1.74-3.6,5.28-1.72,7.89c0.12,0.17,0.24,0.32,0.37,0.48
			c1.97,2.23,5.48,2.76,8.13,1.12c0.83-0.51,7.47-4.66,17.51-12.21c21.56,14.17,20.76,38.36,38.91,41.64
			c10.78,1.95,26.07-32.7-1.75-46.28c-8.66-4.22-18.06-4.75-26.12-4.04c13.76-11.19,30.91-26.74,48.16-46.5
			c32.74,17.76,30.24,52.27,54.99,56.74c13.96,2.52,33.78-42.37-2.27-59.96c-16.54-8.07-35.44-5.93-47.25-3.21
			c9.9-11.87,19.69-25.05,28.7-39.61c5.19-8.39,10.9-15.69,17.01-22.26c42.26,22.88,35.39,66.58,65.69,73.76
			c16.54,3.92,43.63-48.6,1.74-72c-23.2-12.96-51.61-8.31-64.09-5.27c16.87-16.85,37.07-27.96,60.64-36.37
			c36.18,33.91,16.55,76.63,45.3,91.53c15.72,8.15,58.64-38.59,22.76-72.95c-18.09-17.32-44.85-20.87-59.78-21.4
			c16.54-5.32,34.66-9.59,54.32-13.77c34.29,23.92,25.73,62.11,52.46,70.46c14.93,4.67,43.78-41.92,6.98-66.14
			c-9.8-6.45-21-9.21-31.32-10.14c12.69-2.58,25.92-5.36,39.51-8.39C1745.01,1118.21,1769.37,1116.19,1787.28,1101.59z"/>
	</g>
	<g>
		<g>
			<path class="st4" d="M1522.93,685.22l-11.9,89.43l-29.55,220.96l-45.76,341.64c-2.48,19.09-20.27,34.78-39.62,34.78H922.8
				c-19.35,0-32.95-15.69-30.33-34.78l16.34-121.86l3.4-25.89l4.71-34.78l6.28-47.33l19.61-146.83l37-275.35
				c2.48-19.35,20.13-34.91,39.48-34.91h473.43C1511.94,650.31,1525.67,665.87,1522.93,685.22z"/>
		</g>
		<path class="st16" d="M1360.57,650.08h-87.07c3.21-24.01,25.35-43.53,49.36-43.53S1363.79,626.08,1360.57,650.08z"/>
		<path class="st5" d="M1341.54,650.25c-17.99,5.81-32.64,22.13-35.1,41.24l-51.64,385.61l-18.55,138.26H908.32l14.42-107.97
			l19.67-146.87l36.89-275.29c2.57-19.34,20.23-34.98,39.57-34.98H1341.54z"/>
		<path class="st8" d="M1322.91,606.54c-24.01,0-46.22,19.53-49.36,43.53l-51.6,385.62l-18.54,138.22H848.96l44.7-334.03
			l25.35-189.81c3.22-24.01,25.35-43.53,49.36-43.53H1322.91z"/>
		<g>
			<g>
				<path class="st24" d="M1150.09,758.53l0.52-1L1150.09,758.53z"/>
			</g>
			<g>
				<path class="st0" d="M983.7,854.7h-64.33c-4.31,0-7.31-3.65-6.7-8.16l6.12-45.57c0.6-4.5,4.59-8.16,8.89-8.16h64.33
					c4.31,0,7.31,3.65,6.7,8.16l-6.12,45.57C991.99,851.05,988.01,854.7,983.7,854.7z"/>
				<polygon class="st16" points="946.04,810.97 926,810.97 926.83,804.84 946.87,804.84 				"/>
				<path class="st4" d="M978.25,845.49H928.8c-3.93,0-6.97-3.47-6.44-7.37l1.91-14.25c0.43-3.23,3.19-5.64,6.44-5.64h49.45
					c3.93,0,6.97,3.47,6.44,7.37l-1.91,14.25C984.26,843.08,981.5,845.49,978.25,845.49z"/>
			</g>
			<g>
				<path class="st0" d="M985.08,902.19l-6.13,45.63c-0.6,4.49-4.56,8.11-8.85,8.11h-64.33c-4.29,0-7.27-3.63-6.67-8.11l6.13-45.63
					c0.6-4.49,4.56-8.11,8.85-8.11h64.33C982.7,894.08,985.68,897.7,985.08,902.19z"/>
				<g>
					<g>
						<path class="st16" d="M982.49,921.47l-3.54,26.35c-0.6,4.49-4.56,8.11-8.85,8.11h-64.33c-3.28,0-5.82-2.2-6.5-5.25
							c-0.25-0.86-0.3-1.81-0.16-2.86l1.59-11.84c2.83-3.44,5.41-5.63,7.55-5.92h0.46c4.93,0,7.83,10.31,12.67,10.31
							c0.36,0,0.73,0,1.11-0.1c5.64-1.91,14.01-18.04,18.66-18.04h0.09c4.26,0.19,5.35,14.51,9.91,14.51c0.36,0,0.83-0.1,1.32-0.29
							c5.61-3.05,16.05-25.77,22.99-25.77c0,0,0.09,0,0.18,0C978.44,910.88,980.71,914.98,982.49,921.47z"/>
					</g>
					<g>
						<path class="st4" d="M980.42,936.84l-1.47,10.98c-0.6,4.49-4.56,8.11-8.85,8.11h-64.33c-3.28,0-5.82-2.2-6.5-5.25
							c2.51-3.05,4.96-4.96,6.91-5.25h0.46c4.93,0,7.83,10.31,12.67,10.31c0.36,0,0.73,0,1.11-0.09
							c5.64-1.91,14.01-18.04,18.66-18.04h0.09c4.26,0.19,5.35,14.51,9.91,14.51c0.36,0,0.83-0.09,1.32-0.29
							c5.61-3.05,16.05-25.77,22.99-25.77c0,0,0.09,0,0.18,0C976.37,926.25,978.65,930.35,980.42,936.84z"/>
					</g>
					<g>
						<path class="st25" d="M977.55,911.19c-0.22,1.64-1.63,2.97-3.14,2.97c-1.51,0-2.56-1.33-2.34-2.97
							c0.22-1.64,1.63-2.97,3.14-2.97C976.72,908.22,977.77,909.55,977.55,911.19z"/>
					</g>
					<g>
						<path class="st25" d="M954.84,936.43c-0.22,1.64-1.63,2.97-3.14,2.97s-2.56-1.33-2.34-2.97s1.63-2.97,3.14-2.97
							C954.01,933.47,955.06,934.79,954.84,936.43z"/>
					</g>
					<g>
						<path class="st25" d="M942.22,921.99c-0.22,1.64-1.63,2.97-3.14,2.97c-1.51,0-2.56-1.33-2.34-2.97
							c0.22-1.64,1.63-2.97,3.14-2.97C941.39,919.02,942.44,920.35,942.22,921.99z"/>
					</g>
					<g>
						<path class="st25" d="M924.96,940.5c-0.22,1.64-1.63,2.97-3.14,2.97c-1.51,0-2.56-1.33-2.34-2.97
							c0.22-1.64,1.63-2.97,3.14-2.97C924.13,937.53,925.18,938.86,924.96,940.5z"/>
					</g>
					<g>
						<path class="st25" d="M911.23,929.92c-0.22,1.64-1.63,2.97-3.14,2.97c-1.51,0-2.56-1.33-2.34-2.97
							c0.22-1.64,1.63-2.97,3.14-2.97C910.4,926.96,911.45,928.28,911.23,929.92z"/>
					</g>
				</g>
			</g>
			<g>
				<path class="st0" d="M1131.06,955.96h64.33c4.31,0,8.29-3.65,8.89-8.16l6.12-45.57c0.6-4.5-2.4-8.16-6.7-8.16h-64.33
					c-4.31,0-8.29,3.65-8.89,8.16l-6.12,45.57C1123.76,952.3,1126.76,955.96,1131.06,955.96z"/>
				
					<ellipse transform="matrix(0.6137 -0.7895 0.7895 0.6137 -279.3913 1278.9686)" class="st16" cx="1167.38" cy="925.02" rx="23.98" ry="20.75"/>
				
					<ellipse transform="matrix(0.6137 -0.7895 0.7895 0.6137 -279.3913 1278.9686)" class="st8" cx="1167.38" cy="925.02" rx="17.6" ry="15.23"/>
				
					<ellipse transform="matrix(0.6137 -0.7895 0.7895 0.6137 -279.3913 1278.9686)" class="st16" cx="1167.38" cy="925.02" rx="6.92" ry="5.99"/>
				<polygon class="st4" points="1192.63,904.81 1189.86,901.44 1176.85,913.37 1175.75,909.01 1167.38,925.02 1183.56,918.51 
					1179.62,916.74 				"/>
			</g>
			<g>
				<path class="st0" d="M1223.95,801l-6.11,45.54c-0.6,4.49-4.57,8.21-8.86,8.21h-64.33c-4.29,0-7.26-3.72-6.65-8.21l6.11-45.54
					c0.6-4.49,4.57-8.21,8.86-8.21h64.33C1221.59,792.79,1224.55,796.51,1223.95,801z"/>
				<path class="st4" d="M1198.68,849.21c-0.26,1.91-0.77,3.72-1.38,5.54h-40.88c-0.21-1.81-0.24-3.63,0.01-5.54
					c1.64-12.22,12.46-22.15,24.14-22.15C1192.26,827.06,1200.32,836.99,1198.68,849.21z"/>
				
					<ellipse transform="matrix(0.6137 -0.7895 0.7895 0.6137 -188.2778 1248.6206)" class="st16" cx="1181.92" cy="816.73" rx="17.6" ry="15.23"/>
			</g>
			<g>
				
					<ellipse transform="matrix(0.6137 -0.7895 0.7895 0.6137 -268.7934 1169.9663)" class="st16" cx="1061.28" cy="859.68" rx="32.25" ry="27.91"/>
				<path class="st4" d="M1068.79,897.89h-25.28c-1.28,0-2.18-1.09-2-2.43l0,0c0.18-1.34,1.37-2.43,2.65-2.43h25.28
					c1.28,0,2.18,1.09,2,2.43l0,0C1071.26,896.8,1070.08,897.89,1068.79,897.89z"/>
				<path class="st4" d="M1067.76,905.56h-25.28c-1.28,0-2.18-1.09-2-2.43v0c0.18-1.34,1.37-2.43,2.65-2.43h25.28
					c1.28,0,2.18,1.09,2,2.43v0C1070.23,904.47,1069.05,905.56,1067.76,905.56z"/>
				<path class="st4" d="M1062.71,913.23h-17.24c-1.21,0-2.05-1.03-1.88-2.29l0.04-0.28c0.17-1.27,1.29-2.29,2.5-2.29h17.24
					c1.21,0,2.05,1.03,1.88,2.29l-0.04,0.28C1065.04,912.2,1063.92,913.23,1062.71,913.23z"/>
				<path class="st16" d="M1066.02,824.44L1066.02,824.44c-1.12,0-1.9-0.95-1.75-2.12l0.72-5.34c0.16-1.17,1.19-2.12,2.32-2.12l0,0
					c1.12,0,1.9,0.95,1.75,2.12l-0.72,5.34C1068.17,823.49,1067.14,824.44,1066.02,824.44z"/>
				<path class="st16" d="M1051.48,828.53L1051.48,828.53c-0.9,0.83-2.19,0.83-2.87,0l-3.1-3.78c-0.68-0.83-0.5-2.17,0.4-3l0,0
					c0.9-0.83,2.19-0.83,2.87,0l3.1,3.78C1052.56,826.36,1052.38,827.7,1051.48,828.53z"/>
				<path class="st16" d="M1079.46,828.53L1079.46,828.53c0.68,0.83,1.97,0.83,2.87,0l4.12-3.78c0.9-0.83,1.09-2.17,0.4-3l0,0
					c-0.68-0.83-1.97-0.83-2.87,0l-4.12,3.78C1078.96,826.36,1078.78,827.7,1079.46,828.53z"/>
			</g>
			<g>
				<path class="st3" d="M1108.93,971.6c-15.56,0-29.28-5.02-39.77-14.77c-13.16-12.23-17.53-28.11-16.01-38.43
					c0.19-1.31,1.35-2.35,2.6-2.35c0.01,0,0.02,0,0.03,0c1.25,0.02,2.12,1.1,1.93,2.42c-1.3,8.85,2.78,23.46,14.78,34.62
					c13.93,12.94,34.02,16.9,56.61,11.17c1.28-0.36,2.41,0.46,2.54,1.73c0.14,1.28-0.77,2.57-2.04,2.89
					C1122.45,970.7,1115.52,971.6,1108.93,971.6z"/>
			</g>
			<g>
				<path class="st3" d="M1061.2,807.98c-0.74,0-1.42-0.38-1.76-1.07c-9.73-19.65-25.95-31.31-45.66-32.83
					c-16.98-1.32-31.75,5.2-38.27,11.8c-0.96,0.98-2.42,1.06-3.25,0.19c-0.82-0.88-0.7-2.39,0.27-3.37
					c7.6-7.7,23.6-14.83,42.22-13.38c21.14,1.63,38.48,14.05,48.85,34.96c0.54,1.1,0.05,2.58-1.09,3.31
					C1062.09,807.85,1061.64,807.98,1061.2,807.98z"/>
			</g>
		</g>
		<path class="st3" d="M969.7,1037.68h-64.74c-4.93,0-8.51-3.97-8-8.87l0,0c0.51-4.9,4.93-8.87,9.86-8.87h64.74
			c4.93,0,8.51,3.97,8,8.87h0C979.04,1033.71,974.63,1037.68,969.7,1037.68z"/>
		<path class="st3" d="M1132.12,1082.22H900.29c-4.93,0-8.51-3.97-8-8.87l0,0c0.51-4.9,4.93-8.87,9.86-8.87h231.83
			c4.93,0,8.51,3.97,8,8.87l0,0C1141.47,1078.25,1137.05,1082.22,1132.12,1082.22z"/>
		<path class="st3" d="M1127.45,1126.76H895.62c-4.93,0-8.51-3.97-8-8.87l0,0c0.51-4.9,4.93-8.87,9.86-8.87h231.83
			c4.93,0,8.51,3.97,8,8.87l0,0C1136.8,1122.78,1132.39,1126.76,1127.45,1126.76z"/>
	</g>
	<g>
		<g>
			<g>
				<path class="st6" d="M636.46,1112.37c0.52,8.11-0.26,15.56-1.96,21.57c-3.01,11.24-9.15,18.17-17,18.17
					c-5.75,0-12.55-3.92-19.48-12.81c-21.31-27.59-44.98-102.77-49.29-160.16c-1.83-23.93-0.26-44.72,3.4-62.37
					c4.97-24.84,14.25-43.41,24.06-55.83c13.73-17.39,28.76-22.62,43.93-25.63c3.27-0.65,6.67-1.18,9.94-1.7l-6.67,23.93
					l-12.03,43.28l-6.14,22.1l-3.4,12.03l-12.94,46.41c21.57,45.63,43.15,91.13,47.07,124.99
					C636.2,1108.45,636.33,1110.41,636.46,1112.37z"/>
			</g>
			<path class="st3" d="M623.39,857.54l-12.03,43.28l-6.14,22.1l-3.4,12.03c-4.31-0.26-9.15-1.05-14.51-2.48
				c-3.01-0.78-6.28-1.83-9.68-3.14c-7.58-2.75-16.08-6.8-25.5-12.55c4.97-24.84,14.25-43.41,24.06-55.83
				c13.73-17.39,28.76-22.62,43.93-25.63C621.17,842.38,622.21,849.96,623.39,857.54z"/>
			<path class="st5" d="M636.46,1112.37c0.52,8.11-0.26,15.56-1.96,21.57c-3.27-1.44-6.14-3.66-9.02-5.88
				c-10.59-7.98-21.57-16.74-25.63-29.29c-2.48-7.58-2.22-15.95-3.79-23.67c-0.39-2.22-1.05-4.45-1.83-6.54
				c-3.66-9.02-11.77-15.82-13.99-25.23c-2.62-9.94,2.09-20.4,2.22-30.73c0.13-7.71-2.22-15.04-4.31-22.36
				c-0.92-3.01-1.83-6.01-2.62-9.02c-4.18-15.56-6.67-32.03-0.65-46.68c0.78-1.83,1.7-3.53,2.75-5.23
				c4.84-8.5,12.29-15.43,20.4-20.66c3.92-2.48,8.5-5.36,13.34-7.84l-6.14,22.1l-3.4,12.03l-12.94,46.41
				c21.57,45.63,43.15,91.13,47.07,124.99C636.2,1108.45,636.33,1110.41,636.46,1112.37z"/>
			<path class="st5" d="M635.94,1106.35c-2.88-1.7-5.49-3.79-7.98-5.75c-9.94-7.84-19.74-15.82-29.68-23.67
				c-0.78-0.65-1.44-1.31-2.22-1.83c-3.4-2.75-6.67-5.62-9.28-9.02c-3.92-5.23-6.28-11.37-8.63-17.39
				c-3.79-10.2-7.71-20.4-9.28-31.12c-1.7-10.72-0.91-22.23,3.92-31.77c0.78-1.57,1.7-3.01,2.75-4.58c1.05-1.96,2.22-4.05,3.14-6.15
				c4.71-11.51,0.39-25.1,4.97-36.61c0.92-2.22,2.09-4.18,3.66-6.01c4.31-5.36,10.98-8.89,17.91-9.54l-3.4,12.03l-12.94,46.41
				C610.44,1026.99,632.02,1072.49,635.94,1106.35z"/>
		</g>
		<g>
			<g>
				<polygon class="st6" points="605.21,1405.76 599.72,1425.38 592.27,1451.79 589.79,1460.68 589.26,1462.25 584.69,1461.59 
					564.42,1458.32 566.12,1450.22 573.44,1415.18 577.37,1396.09 582.07,1397.79 588.09,1399.88 				"/>
			</g>
			<g>
				<path class="st10" d="M630.06,1482.9l-25.63-0.52c-8.24-4.58-16.61-9.15-21.18-9.28c-0.13,0-0.13,0-0.26,0
					c-4.31,0-5.23,4.18-6.14,8.37l-18.44-0.91c1.05-13.21,1.96-26.41,6.41-29.68c0.39-0.26,0.92-0.52,1.31-0.65
					c0.52-0.13,1.05-0.26,1.57-0.26c4.31,0,9.94,4.31,14.25,5.62c0.13,0,0.26,0.13,0.39,0.13c0.92,0.26,1.7,0.39,2.48,0.39
					c0.26,0,0.39,0,0.65-0.13c2.75-0.13,4.84-1.96,6.8-4.18c0.39-0.65,0.92-1.18,1.44-1.83c3.4,6.8,6.8,13.6,12.68,16.34
					c5.88,2.62,14.25,1.31,18.7,3.4c1.18,0.52,2.09,1.31,2.61,2.35c0.39,0.52,0.65,1.05,0.92,1.57
					C629.66,1476.24,629.93,1479.51,630.06,1482.9z"/>
			</g>
			<g>
				<path class="st10" d="M669.41,1113.28c-0.13,6.01-0.26,12.16-0.52,18.3c-1.18,26.02-3.53,52.3-7.71,79.23
					c-10.33,66.55-32.56,136.89-54.65,207.36c-1.31,3.53-3.79,5.88-6.8,7.19c-5.23,2.22-12.29,1.31-17.91-1.57
					c-2.48-1.44-4.71-3.14-6.15-5.23c-1.05-1.05-1.7-2.22-2.22-3.4c-1.18-2.62-1.31-5.49-0.26-8.63c8.5-64.98,17-130.09,15.56-175.2
					c-1.44-45.11-12.81-70.21-16.87-95.58c-4.05-25.49-0.78-51.25,2.35-77.01l94.53-39.75
					C669.54,1050.26,670.2,1081.51,669.41,1113.28z"/>
			</g>
			<path class="st5" d="M669.41,1113.28c-0.13,6.01-0.26,12.16-0.52,18.3c-8.5-4.84-17.39-8.63-26.8-11.51
				c-1.83-0.52-9.41-2.62-17.39-4.45c-9.28-2.09-19.09-3.66-20.27-1.57c-6.41,12.68-2.48,28.11,3.66,40.92
				c4.45,9.54,10.2,18.83,13.47,28.76c1.18,3.4,2.09,6.8,2.62,10.33c2.48,18.57-6.28,36.61-12.03,54.52
				c-3.79,11.77-6.41,24.06-7.58,36.35c-1.05,9.94-1.18,20-0.39,30.07c0.26,2.62,0.39,5.23,0.65,7.84v0.39
				c1.57,15.3,3.53,30.99-1.96,45.24c-2.62,6.8-6.8,12.81-10.07,19.35c-1.96,3.92-3.4,7.98-4.71,12.03
				c-1.7,5.23-3.01,10.46-4.45,15.82c-0.65,2.62-1.31,5.36-1.83,8.11c-1.57,7.98-2.62,16.21-1.7,23.8c0.26,2.75,0.92,5.36,1.83,7.98
				c0.65,2.09,1.57,4.05,2.75,6.01c1.18,1.7,2.48,3.27,3.92,4.71c10.2,10.2,24.97,9.41,40.01,7.32c1.05,2.62,1.31,5.88,1.44,9.28
				l-25.63-0.52c-8.24-4.58-16.61-9.15-21.18-9.28c-0.13,0-0.13,0-0.26,0c-4.31,0-5.23,4.18-6.14,8.37l-18.44-0.91
				c1.05-13.21,1.96-26.41,6.41-29.68c0.39-0.26,0.92-0.52,1.31-0.65l7.32-35.04c-1.18-2.62-1.31-5.49-0.26-8.63
				c8.5-64.98,17-130.09,15.56-175.2c-1.44-45.11-12.81-70.21-16.87-95.58c-4.05-25.49-0.78-51.25,2.35-77.01l94.53-39.75
				C669.54,1050.26,670.2,1081.51,669.41,1113.28z"/>
			<path class="st5" d="M669.41,1113.28c-7.45-3.01-14.64-6.41-19.61-6.54c-9.15-0.39-18.57,2.62-25.1,8.89
				c-1.57,1.44-3.01,3.01-4.18,4.84c-11.64,18.17,1.83,41.71,1.05,63.28v1.31c-1.18,18.17-13.21,33.86-17.39,51.65
				c-3.66,15.69-1.18,32.16,0.39,48.25c0,0.65,0.13,1.31,0.13,1.96c0.92,11.9,1.18,24.06,0.13,35.96v0.39
				c-1.31,16.87-4.84,33.47-11.24,49.16c-3.53,8.5-7.84,16.87-11.51,25.36c-2.88,6.8-5.36,13.73-6.41,20.79
				c-0.65,3.66-0.92,7.45-0.65,11.24c0.39,6.14,2.22,12.29,5.1,17.78c1.44,3.01,3.27,5.75,5.36,8.37c1.31,1.7,2.75,3.27,4.31,4.71
				c2.88,2.62,6.14,4.97,9.68,6.8c8.63,4.58,18.7,6.01,28.24,4.58c0.39,0.52,0.65,1.05,0.92,1.57c1.05,2.62,1.31,5.88,1.44,9.28
				l-25.63-0.52c-8.24-4.58-16.61-9.15-21.18-9.28c-0.13,0-0.13,0-0.26,0c-4.31,0-5.23,4.18-6.14,8.37l-18.44-0.91
				c1.05-13.21,1.96-26.41,6.41-29.68c0.39-0.26,0.92-0.52,1.31-0.65l7.32-35.04c-1.18-2.62-1.31-5.49-0.26-8.63
				c8.5-64.98,17-130.09,15.56-175.2c-1.44-45.11-12.81-70.21-16.87-95.58c-4.05-25.49-0.78-51.25,2.35-77.01l94.53-39.75
				C669.54,1050.26,670.2,1081.51,669.41,1113.28z"/>
		</g>
		<g>
			<g>
				<polygon class="st6" points="726.94,1421.06 722.36,1437.4 713.86,1466.95 710.86,1477.67 699.09,1475.71 697,1475.32 
					686.02,1473.62 687.72,1465.52 695.04,1430.87 699.09,1411.52 710.33,1415.31 714.26,1416.75 				"/>
			</g>
			<g>
				<path class="st10" d="M751.78,1498.2l-25.76-0.52c-8.24-4.45-16.47-9.02-21.05-9.15c-0.13,0-0.26,0-0.26,0
					c-4.44,0-5.36,4.18-6.28,8.24l-18.3-0.78c0.92-13.21,1.96-26.54,6.28-29.81c0.39-0.26,0.78-0.52,1.31-0.65s1.05-0.26,1.57-0.26
					c1.44,0,3.14,0.52,4.84,1.18c1.18,0.52,2.48,1.18,3.79,1.83c2.22,1.18,4.31,2.35,6.14,2.88c0.78,0.13,1.57,0.26,2.35,0.26
					c3.14,0,5.36-1.96,7.45-4.45c0.52-0.52,0.92-1.18,1.44-1.7c3.4,6.8,6.93,13.73,12.81,16.34c0.65,0.26,1.31,0.52,2.09,0.65
					c0.39,0.13,0.65,0.26,1.05,0.26c5.36,1.44,11.9,0.78,15.43,2.48C751.13,1487.09,751.39,1492.58,751.78,1498.2z"/>
			</g>
			<g>
				<path class="st10" d="M769.43,1214.35c1.7,68.25-19.48,141.6-40.53,214.82c-0.39,3.92-3.01,6.67-6.54,8.24
					c-3.92,1.7-8.89,2.09-13.6,1.18c-0.78-0.13-1.7-0.26-2.48-0.52c-4.84-1.05-9.28-3.66-11.24-7.19c-1.05-1.7-1.57-3.79-1.31-6.01
					c8.89-63.15,17.78-126.43,9.15-175.33c-8.76-48.77-35.04-83.15-50.86-117.41c-15.82-34.26-21.18-68.38-26.54-102.51l92.7-10.72
					c12.03,31.12,24.19,62.24,33.6,93.88c2.75,9.15,5.23,18.3,7.32,27.46c0,0.13,0.13,0.13,0.13,0.13
					C764.99,1164.54,768.78,1189.12,769.43,1214.35z"/>
			</g>
			<path class="st5" d="M751.78,1498.2l-25.76-0.52c-8.24-4.45-16.47-9.02-21.05-9.15c-0.13,0-0.26,0-0.26,0
				c-4.44,0-5.36,4.18-6.28,8.24l-18.3-0.78c0.92-13.21,1.96-26.54,6.28-29.81c0.39-0.26,0.78-0.52,1.31-0.65l7.32-34.65
				c-1.05-1.7-1.57-3.79-1.31-6.01c8.89-63.15,17.78-126.43,9.15-175.33c-8.76-48.77-35.04-83.15-50.86-117.41
				c-15.82-34.26-21.18-68.38-26.54-102.51l92.7-10.72c12.03,31.12,24.19,62.24,33.6,93.88c-2.48-0.92-4.84-1.96-7.19-2.75
				c-11.5-3.79-23.4-6.28-35.43-7.06c-2.09-0.13-4.18-0.26-6.28-0.26c-6.14,0-12.16,1.18-17.13,4.44
				c-10.98,7.58-12.03,24.19-6.14,36.09c1.31,2.62,2.88,5.1,4.58,7.45c6.15,8.37,14.51,14.91,22.62,21.44
				c0.52,0.39,0.92,0.78,1.44,1.18c9.81,8.11,19.61,17,23.67,29.16c7.98,23.8-8.89,49.16-7.32,74.26
				c0.65,10.98,4.84,21.44,6.28,32.42c2.35,18.7-3.4,36.74-9.41,54.91c-4.05,12.55-8.37,25.23-10.07,38.18
				c-0.65,4.31-0.92,8.63-1.05,13.07c-0.26,5.1-0.39,10.2-0.78,15.17c0,0,0,0,0,0.13c-0.26,2.75-0.52,5.36-0.78,7.98
				c-1.05,6.93-2.75,13.47-6.14,19.74c-1.83,3.14-3.92,6.41-4.71,9.94c0,0.13,0,0.13,0,0.26c-0.39,2.48,0,4.97,1.18,7.19
				c1.18,2.62,3.27,4.84,5.75,6.54c0.13,0,0.26,0.13,0.39,0.13c3.14,2.22,6.93,3.4,10.59,3.4c2.22,0,4.58-0.26,6.67-0.78
				c0.26-0.13,0.52-0.13,0.92-0.26c2.35-0.65,4.58-1.44,6.8-2.48c0.39,0.13,0.65,0.26,1.05,0.26c5.36,1.44,11.9,0.78,15.43,2.48
				C751.13,1487.09,751.39,1492.58,751.78,1498.2z"/>
			<path class="st5" d="M751.78,1498.2l-25.76-0.52c-8.24-4.45-16.47-9.02-21.05-9.15c-0.13,0-0.26,0-0.26,0
				c-4.44,0-5.36,4.18-6.28,8.24l-18.3-0.78c0.92-13.21,1.96-26.54,6.28-29.81c0.39-0.26,0.78-0.52,1.31-0.65l7.32-34.65
				c-1.05-1.7-1.57-3.79-1.31-6.01c8.89-63.15,17.78-126.43,9.15-175.33c-8.76-48.77-35.04-83.15-50.86-117.41
				c-15.82-34.26-21.18-68.38-26.54-102.51l92.7-10.72c12.03,31.12,24.19,62.24,33.6,93.88c2.75,9.15,5.23,18.3,7.32,27.46
				c-6.8-5.23-13.34-11.77-19.74-16.87c-9.28-7.32-18.83-14.77-29.94-18.83c-2.09-0.78-4.31-1.44-6.54-1.83
				c-9.54-2.22-19.74-1.18-27.72,4.18c-9.81,6.54-14.38,21.18-7.71,30.99c3.79,5.49,9.94,8.5,15.56,12.03
				c0.39,0.26,0.78,0.52,1.18,0.78c9.41,5.88,17.52,13.73,24.06,22.62c19.87,26.67,26.15,63.8,13.6,94.79
				c-4.31,10.59-10.59,20.66-10.85,32.03c-0.26,8.11,2.48,15.82,4.58,23.54c3.66,13.07,5.62,26.67,5.88,40.4
				c0.52,17.78-1.96,35.56-7.19,52.69c-1.31,4.58-2.88,9.15-4.71,13.73c0,0,0,0,0,0.13c-1.05,2.48-2.09,4.97-3.27,7.45
				c-1.7,3.92-3.79,7.84-5.88,11.64c-3.01,5.23-6.28,10.72-6.28,16.74v0.39c0.13,3.14,1.05,6.01,2.88,8.5
				c1.83,2.88,4.58,5.23,7.84,6.93c0.13,0,0.26,0.13,0.39,0.13c4.18,2.22,9.02,3.27,13.6,3.01c1.18-0.13,2.48-0.26,3.66-0.39
				c0.26-0.13,0.52-0.13,0.92-0.26c2.62-0.39,5.23-1.18,7.85-2.22c5.36,1.44,11.9,0.78,15.43,2.48
				C751.13,1487.09,751.39,1492.58,751.78,1498.2z"/>
		</g>
		<g>
			<path class="st3" d="M733.22,1049.09c-18.17,13.2-36.35,26.54-55.96,31.12c-6.01,1.44-12.03,1.96-18.17,1.96
				c-13.99,0-28.24-3.01-41.45-6.28c-19.09-4.58-36.22-9.41-53.34-14.38c6.01-7.19,11.9-14.38,15.82-25.76
				c3.53-10.07,5.36-23.4,4.18-42.75c-2.62-41.18-18.96-109.83,6.8-142.78c12.42-16.08,34.91-23.67,57.66-23.67
				c24.19,0,48.9,8.63,62.63,24.71c12.16,14.12,15.69,34.12,15.69,55.31v0.13c0,25.36-5.1,52.3-6.93,72.96
				C716.87,1017.32,725.11,1033.14,733.22,1049.09z"/>
		</g>
		<g>
			<path class="st6" d="M659.21,827.34c-7.32,3.79-14.64,7.71-21.57,8.76c-0.39,0.13-0.78,0.26-1.18,0.26
				c-1.44,0.26-2.75,0.26-4.05,0.26c-1.83,0-3.66-0.13-5.49-0.52c-4.05-0.52-8.11-1.57-12.03-2.75c4.05-7.85,7.98-15.82,10.2-25.1
				c2.09-9.41,2.48-20.13,2.88-30.86l27.33,2.88c-1.83,8.89-3.66,17.78-3.53,25.23c0,0.78,0,1.57,0.13,2.35
				c0.26,2.48,0.65,4.84,1.44,6.93C654.64,819.37,656.99,823.42,659.21,827.34z"/>
			<path class="st5" d="M651.89,807.86c0.26,2.48,0.65,4.84,1.44,6.93c-4.71-3.53-10.46-5.36-16.21-2.22
				c-1.44,0.78-2.88,1.96-3.4,3.53c-0.65,1.57-0.39,3.27-0.13,4.84c0.52,3.66,1.44,7.32,2.62,10.72c0.52,1.44,1.05,3.01,1.44,4.44
				c-0.39,0.13-0.78,0.26-1.18,0.26c-1.44,0.26-2.75,0.26-4.05,0.26c-5.88,0-11.77-1.57-17.52-3.27c4.05-7.85,7.98-15.82,10.2-25.1
				c2.09-9.41,2.48-20.13,2.88-30.86l27.33,2.88C653.2,790.08,651.24,800.01,651.89,807.86z"/>
			<path class="st5" d="M655.29,780.27c-1.83,8.89-3.66,17.78-3.53,25.23c-0.78-0.92-1.7-1.83-2.88-2.35
				c-2.75-1.57-6.41-1.7-9.02,0.13c-2.62,1.96-3.79,5.75-2.09,8.5c1.05,1.7,2.88,3.4,2.09,5.1c-0.26,0.65-0.65,1.05-1.18,1.31
				c-2.48,1.83-5.23,3.14-8.24,3.79c-1.18,0.26-2.48,0.39-3.27,1.18c-1.05,1.05-1.18,2.62-1.18,4.05c0,3.01,0.26,5.88,0.91,8.89
				c-4.05-0.52-8.11-1.57-12.03-2.75c4.05-7.85,7.98-15.82,10.2-25.1c2.09-9.41,2.48-20.13,2.88-30.86L655.29,780.27z"/>
		</g>
		<g>
			<path class="st6" d="M623.46,793.35c12.85,6.73,25.7,13.47,35.06,13.47c4.56,0,8.29-1.6,10.78-5.58
				c7.6-12.14,3.7-46.41-6.42-59.99c-4.19-5.62-9.44-7.69-15.33-7.69c-8.32,0-17.91,4.16-27.49,8.33L623.46,793.35z"/>
		</g>
		<g>
			<path d="M655.72,760.85c4.42,1.38,8.83,2.76,12.46,2.76c2.67,0,4.91-0.75,6.41-2.79c3.55-4.82,2.98-16.85-1.29-25.32
				s-12.28-13.39-20.1-15.04c-2-0.43-4-0.64-5.95-0.64c-5.68,0-11.09,1.78-15.71,5.35c-6.22,4.8-10.99,12.84-15.76,20.89
				c-5.41,6.94-10.83,13.89-10.95,25.08s5.05,26.57,12.65,34.18c4.55,4.56,9.97,6.33,15.19,6.33c3.5,0,6.91-0.79,9.92-2.07
				c7.5-3.18,12.46-9.34,11.05-15.76s-9.19-13.07-10.38-16.63c-0.77-2.3,1.2-3.32,3.7-3.32c1.37,0,2.91,0.31,4.24,0.88
				c3.76,1.63,5.89,5.41,8.04,9.2c0.97-2.84,1.96-5.7,1.36-9.56C660.02,770.52,657.87,765.69,655.72,760.85z"/>
		</g>
		<path class="st5" d="M733.22,1049.09c-18.17,13.2-36.35,26.54-55.96,31.12c-6.01,1.44-12.03,1.96-18.17,1.96
			c-13.99,0-28.24-3.01-41.45-6.28c-19.09-4.58-36.22-9.41-53.34-14.38c6.01-7.19,11.9-14.38,15.82-25.76
			c3.27,2.35,6.54,4.71,9.94,6.8c27.06,17,63.8,17.26,91,0.52c2.48-1.57,4.97-3.27,6.8-5.49c5.49-7.06,3.27-17.39-0.65-25.5
			c-7.19-15.04-19.09-27.59-25.89-43.02c-8.37-18.96-3.92-33.73-1.7-52.95c0.92-7.32-1.05-12.55,4.31-19.09
			c4.31-5.36,11.24-9.02,18.17-9.55c12.94-0.92,24.97,5.88,35.82,12.94c3.01,2.09,6.15,4.05,9.15,6.15v0.13
			c0,25.36-5.1,52.3-6.93,72.96C716.87,1017.32,725.11,1033.14,733.22,1049.09z"/>
		<g>
			<g>
				<path class="st6" d="M880.57,850.87c-5.1,11.24-10.33,22.62-15.56,33.6c-32.03,68.77-64.72,129.44-102.51,131.53h-2.22
					c-32.95,0-69.3-42.62-89.17-83.42c-1.31-2.48-2.48-4.97-3.4-7.45c-3.01-6.41-5.36-12.68-7.19-18.57
					c-1.31-3.92-2.35-7.71-3.14-11.37c-7.58-35.43,8.24-54,27.06-54c5.88,0,12.16,1.83,18.04,5.75
					c13.34,8.76,24.71,27.72,35.17,51.12c8.37,18.96,16.21,40.79,23.93,62.76l102.64-128.39l10.46,11.77L880.57,850.87z"/>
			</g>
			<path class="st6" d="M890.63,818.19c-2.75,5.36,2.62,9.41,3.66,15.43c0.39,1.83,0.26,3.92-0.65,6.28
				c-3.66,9.81-13.07,10.98-13.07,10.98l-5.88-6.67l-10.46-11.77c20.92-28.76,32.82-36.74,39.75-27.59
				C907.24,809.3,894.16,811.26,890.63,818.19z"/>
			<path class="st3" d="M737.66,898.07c-18.7,14.51-43.93,30.73-66.55,34.52c-6.54-13.21-11.37-26.15-13.73-37.39
				c-7.58-35.43,8.24-54,27.06-54c5.88,0,12.16,1.83,18.04,5.75C715.83,855.71,727.2,874.67,737.66,898.07z"/>
			<path class="st5" d="M893.64,839.89c-3.66,9.81-13.07,10.98-13.07,10.98c-37.13,81.32-74.13,162.65-118.06,165.13h-2.22
				c-32.95,0-69.3-42.62-89.17-83.42c-4.44-9.02-8.11-17.78-10.59-26.02c8.37,1.05,16.61,3.79,23.14,8.5
				c18.96,13.73,21.31,41.18,35.69,59.75c8.37,10.98,21.31,18.57,35.04,19.48c13.86,0.91,28.11-5.49,35.69-16.87
				c3.53-5.36,5.62-11.51,8.11-17.26c5.88-13.6,14.12-25.76,22.49-37.92c5.62-8.5,11.37-16.87,17.13-25.23
				c9.02-13.47,18.17-26.93,27.33-40.27c2.88-4.31,6.01-8.76,9.54-12.55c3.53-3.79,7.45-7.06,12.29-8.89
				c2.35-0.92,4.84-1.44,7.32-1.7C894.69,835.45,894.56,837.54,893.64,839.89z"/>
			<path class="st5" d="M865.01,884.48c-32.03,68.77-64.72,129.44-102.51,131.53h-2.22c-32.95,0-69.3-42.62-89.17-83.42
				c-1.31-2.48-2.48-4.97-3.4-7.45c8.63-0.26,20.53,10.33,25.1,15.3c8.63,9.28,15.04,22.1,27.06,26.15
				c6.14,2.09,12.81,1.44,19.22,2.09c14.12,1.7,28.76,10.07,41.71,3.92c10.46-4.84,14.77-17.13,19.87-27.59
				c7.98-16.47,20.27-30.86,35.43-41.45C845.53,897.03,856.12,891.93,865.01,884.48z"/>
		</g>
	</g>
</g>
</svg>
